<?xml version="1.0" encoding="UTF-8"?>
<svg xmlns="http://www.w3.org/2000/svg" xmlns:xlink="http://www.w3.org/1999/xlink" width="3000" height="3000" viewBox="0 0 3000 3000">
<rect x="-300" y="-300" width="3600" height="3600" fill="rgb(100%, 100%, 100%)" fill-opacity="1"/>
<path fill-rule="evenodd" fill="rgb(100%, 85.546875%, 0%)" fill-opacity="1" d="M 1501.160156 250 C 2190.421875 250 2750 809.578125 2750 1498.839844 C 2750 2188.085938 2190.421875 2747.671875 1501.160156 2747.671875 C 811.914062 2747.671875 252.328125 2188.085938 252.328125 1498.839844 C 252.328125 809.578125 811.914062 250 1501.160156 250 "/>
<path fill-rule="evenodd" fill="rgb(94.921875%, 5.099487%, 5.099487%)" fill-opacity="1" d="M 2112.570312 968.410156 C 2253.339844 797.761719 2463.359375 837.21875 2550.480469 952.128906 C 2637.609375 1067.050781 2601.839844 1257.429688 2461.058594 1428.070312 C 2360.730469 1557.050781 2144.890625 1664.320312 1969.488281 1729.910156 C 1829.871094 1605.128906 1667.679688 1426.828125 1621 1270.238281 C 1551.761719 1060.140625 1587.53125 869.761719 1710.421875 794.300781 C 1833.308594 718.839844 2043.328125 758.300781 2112.570312 968.410156 "/>
<path fill-rule="evenodd" fill="rgb(100%, 100%, 100%)" fill-opacity="1" d="M 1713.46875 1073.019531 C 1713.46875 1073.019531 1693.488281 983.109375 1773.421875 893.191406 C 1796.511719 867.199219 1833.359375 841.089844 1873.320312 863.21875 C 1951.691406 906.621094 1853.339844 963.128906 1823.371094 1003.089844 C 1796.578125 1038.800781 1783.410156 1088.660156 1783.410156 1132.96875 C 1783.410156 1162.941406 1768.910156 1178.421875 1743.441406 1152.949219 C 1723.460938 1132.96875 1715.628906 1080.730469 1713.46875 1073.019531 "/>
<path fill-rule="evenodd" fill="rgb(94.921875%, 5.099487%, 5.099487%)" fill-opacity="1" d="M 867.226562 998.890625 C 903.816406 780.71875 1105.421875 709.878906 1238.339844 765.839844 C 1371.25 821.800781 1435.460938 1004.558594 1398.859375 1222.730469 C 1376.460938 1384.589844 1243.171875 1585.410156 1124.070312 1729.910156 C 940.761719 1691.660156 711.15625 1618.351562 592.433594 1506.070312 C 427.417969 1358.738281 363.207031 1175.980469 431.902344 1049.191406 C 500.601562 922.390625 702.210938 851.550781 867.226562 998.890625 "/>
<path fill-rule="evenodd" fill="rgb(100%, 100%, 100%)" fill-opacity="1" d="M 573.90625 1289.039062 C 573.90625 1289.039062 511.644531 1221.160156 535.902344 1103.328125 C 542.914062 1069.269531 561.765625 1028.230469 607.4375 1027.421875 C 697.003906 1025.820312 640.085938 1123.929688 634.113281 1173.53125 C 628.773438 1217.851562 642.285156 1267.609375 664.441406 1305.988281 C 679.429688 1331.941406 674.617188 1352.601562 639.824219 1343.269531 C 612.53125 1335.960938 579.632812 1294.628906 573.90625 1289.039062 "/>
<path fill-rule="evenodd" fill="rgb(25.488281%, 17.993164%, 1.197815%)" fill-opacity="1" d="M 1124.019531 2042.121094 C 1124.019531 2042.121094 1119.628906 1789.96875 1393.769531 1872.28125 C 1393.769531 1872.28125 1603.441406 1935.289062 1703.480469 1872.28125 C 1803.519531 1809.261719 2012.191406 1844.808594 1983.21875 2022.136719 C 1954.25 2199.46875 1784.21875 2298.636719 1586.089844 2301.878906 C 1387.960938 2305.117188 1137.589844 2251.03125 1124.019531 2042.121094 "/>
</svg>
